<?xml version="1.0" encoding="UTF-8"?>
<svg width="600px" height="200px" viewBox="0 0 600 200" version="1.1" xmlns="http://www.w3.org/2000/svg" xmlns:xlink="http://www.w3.org/1999/xlink">
    <!-- Generator: Sketch 52.6 (67491) - http://www.bohemiancoding.com/sketch -->
    <title>Header</title>
    <desc>Created with Sketch.</desc>
    <defs>
        <linearGradient x1="50%" y1="-3.74761462%" x2="50%" y2="102.695247%" id="linearGradient-1">
            <stop stop-color="#8AB4FF" offset="0%"></stop>
            <stop stop-color="#E492FF" offset="100%"></stop>
        </linearGradient>
        <linearGradient x1="50%" y1="0.131255814%" x2="50%" y2="105.562512%" id="linearGradient-2">
            <stop stop-color="#8AB4FF" offset="0%"></stop>
            <stop stop-color="#E492FF" offset="100%"></stop>
        </linearGradient>
        <linearGradient x1="49.9999928%" y1="-77.6268268%" x2="49.9999928%" y2="100.903473%" id="linearGradient-3">
            <stop stop-color="#1A6DFF" offset="0%"></stop>
            <stop stop-color="#C822FF" offset="100%"></stop>
        </linearGradient>
        <linearGradient x1="50%" y1="1.83926696%" x2="50%" y2="201.046576%" id="linearGradient-4">
            <stop stop-color="#1A6DFF" offset="0%"></stop>
            <stop stop-color="#C822FF" offset="100%"></stop>
        </linearGradient>
    </defs>
    <g id="Header" stroke="none" stroke-width="1" fill="none" fill-rule="evenodd">
        <g id="image" transform="translate(227.000000, 27.000000)">
            <polygon id="Path" points="0 146 0 0 146 0 146 146"></polygon>
            <g id="Group" transform="translate(14.000000, 14.000000)">
                <path d="M16.096875,102.903125 L6.959375,102.903125 C4.4351385,102.903125 2.390625,100.858612 2.390625,98.334375 L2.390625,59.5 C2.390625,56.9757635 4.4351385,54.93125 6.959375,54.93125 L16.096875,54.93125 C18.6211115,54.93125 20.665625,56.9757635 20.665625,59.5 L20.665625,98.334375 C20.665625,100.858612 18.6211115,102.903125 16.096875,102.903125 Z" id="Path" fill="url(#linearGradient-1)"></path>
                <path d="M79.997699,28.1195385 C80.0251115,27.9208 80.059375,27.7243395 80.059375,27.51875 L80.059375,20.665625 C80.059375,18.1413885 78.0148615,16.096875 75.490625,16.096875 L75.490625,11.528125 L70.921875,11.528125 L70.921875,16.096875 L68.6375,16.096875 L68.6375,11.528125 L64.06875,11.528125 L64.06875,16.096875 L59.5,16.096875 L59.5,20.665625 L64.06875,20.665625 L64.06875,27.51875 L64.06875,32.0875 L64.06875,38.940625 L59.5,38.940625 L59.5,43.509375 L64.06875,43.509375 L64.06875,48.078125 L68.6375,48.078125 L68.6375,43.509375 L70.921875,43.509375 L70.921875,48.078125 L75.490625,48.078125 L75.490625,43.509375 L77.775,43.509375 C80.2992365,43.509375 82.34375,41.462575 82.34375,38.940625 L82.34375,32.0875 C82.34375,30.376501 81.3911635,28.9030855 79.997699,28.1195385 Z M68.6375,26.3765625 L68.6375,21.8078125 C68.6375,21.177325 69.1492,20.665625 69.7796875,20.665625 L74.3484375,20.665625 C74.978925,20.665625 75.490625,21.177325 75.490625,21.8078125 L75.490625,26.3765625 C75.490625,27.00705 74.978925,27.51875 74.3484375,27.51875 L69.7796875,27.51875 C69.1492,27.51875 68.6375,27.00705 68.6375,26.3765625 Z M77.775,37.7984375 C77.775,38.428925 77.2633,38.940625 76.6328125,38.940625 L69.7796875,38.940625 C69.1492,38.940625 68.6375,38.428925 68.6375,37.7984375 L68.6375,33.2296875 C68.6375,32.5992 69.1492,32.0875 69.7796875,32.0875 L75.490625,32.0875 L76.6328125,32.0875 C77.2633,32.0875 77.775,32.5992 77.775,33.2296875 L77.775,37.7984375 Z" id="Shape" fill="url(#linearGradient-2)" fill-rule="nonzero"></path>
                <g fill-rule="nonzero" id="Shape">
                    <path d="M115.295862,75.0840105 C113.153114,73.4940855 110.288512,73.0303595 107.446749,73.818471 L72.530075,83.4631065 C72.957251,82.407721 73.2039635,81.260969 73.2039635,80.0525325 C73.2039635,75.01777 69.1057905,70.9218835 64.06875,70.9218835 L42.6527365,70.9218835 C41.1290605,68.6375085 37.2547605,61.7843835 32.0943595,61.7843835 L22.9500085,61.7843835 L22.9500085,59.5000085 C22.9500085,55.7170835 19.8912325,52.6468835 16.106021,52.6468835 L6.9708075,52.6468835 C3.1878825,52.6468835 0.1062585,55.7170835 0.1062585,59.5000085 L0.1062585,98.325246 C0.1062585,102.110457 3.1878825,105.187509 6.9708075,105.187509 L16.106021,105.187509 C19.8912325,105.187509 22.9500085,102.110457 22.9500085,98.325246 L22.9500085,96.614247 L50.6800345,115.350686 C54.161422,117.708162 58.2139075,118.891472 62.275522,118.891472 C66.021897,118.891472 69.779696,117.88406 73.1034595,115.853249 L114.615122,90.5012595 C117.249009,88.895346 118.893759,85.978197 118.893759,82.889722 L118.893759,82.1792835 C118.893759,79.362647 117.577959,76.7767345 115.29587,75.084019 L115.295862,75.0840105 Z M18.38125,98.334375 C18.38125,99.59535 17.35785,100.61875 16.096875,100.61875 L13.8125,100.61875 L13.8125,91.48125 L9.24375,91.48125 L9.24375,100.61875 L6.959375,100.61875 C5.6984,100.61875 4.675,99.59535 4.675,98.334375 L4.675,59.5 C4.675,58.239025 5.6984,57.215625 6.959375,57.215625 L16.096875,57.215625 C17.35785,57.215625 18.38125,58.239025 18.38125,59.5 L18.38125,98.334375 Z M114.325,82.8897135 C114.325,84.397401 113.5209,85.8205645 112.232513,86.6063895 L70.7231365,111.958379 C65.3251605,115.259303 58.462898,115.101679 53.2385345,111.570039 L22.9500085,91.1066125 L22.9500085,66.353125 L32.0943595,66.353125 C34.5135105,66.353125 37.732197,70.9995395 39.146223,74.1405615 L39.7515845,75.490625 L64.0687585,75.490625 C66.5861355,75.490625 68.6375085,77.537425 68.6375085,80.0502375 C68.6375085,82.5721875 66.588422,84.628125 64.0687585,84.628125 L52.64917,84.628125 L41.2250085,84.628125 L41.2250085,89.196875 L52.64917,89.196875 L64.0687585,89.196875 L68.6375085,89.196875 L108.662045,78.2227375 C110.119472,77.818401 111.586045,78.0171395 112.572895,78.750426 C113.683097,79.5750875 114.325008,80.822352 114.325008,82.1769885 L114.325,82.8897135 Z" fill="url(#linearGradient-3)"></path>
                    <path d="M70.5952115,59.4840115 L82.34375,59.5 C82.3460365,59.5 82.348323,59.5 82.350601,59.5 C89.957574,59.5 97.5645385,56.6034125 103.353149,50.812524 C108.56381,45.6018625 111.407851,38.9177855 111.930975,32.0875 L112.040625,32.0875 L112.040625,27.51875 L111.930975,27.51875 C111.407851,20.6884645 108.56381,14.0043875 103.353149,8.793726 C97.559974,3.000551 89.9530095,0.124525 82.34375,0.131376 L68.6375,0.2159 C61.8117875,0.739024 55.132275,3.583073 49.9239,8.793726 C44.313475,14.4018645 41.225,21.864924 41.225,29.803125 C41.225,37.741326 44.313475,45.202099 49.9239,50.812524 C55.630273,56.5188885 63.100175,59.401774 70.5952115,59.4840115 Z M87.686901,54.3121865 C89.1786,53.291073 90.6086145,52.1374615 91.9312655,50.812524 C92.799328,49.9444615 93.5828665,49.021574 94.320726,48.078125 L99.565651,48.078125 C96.1322375,51.3128 92.0157895,53.384726 87.686901,54.3121865 Z M103.412538,43.509375 L97.2789895,43.509375 C99.140753,39.920624 100.207554,36.028049 100.509091,32.0875 L107.362217,32.0875 C106.999003,36.089725 105.683203,40.0211365 103.41253,43.509375 L103.412538,43.509375 Z M103.412539,16.096875 C105.683212,19.5851135 106.999012,23.5142385 107.359939,27.51875 L100.506814,27.51875 C100.205276,23.578201 99.138475,19.685626 97.276703,16.096875 L103.412539,16.096875 Z M99.570224,11.528125 L94.320726,11.528125 C93.582875,10.584676 92.7993365,9.6617885 91.9312655,8.793726 C90.588053,7.4505135 89.139755,6.2809135 87.6252165,5.2506625 C91.9792395,6.1781145 96.120805,8.275175 99.570224,11.528125 Z M53.1540105,12.026123 C58.053997,7.1261365 64.4913615,4.675 70.926448,4.675 C77.3638125,4.675 83.8011855,7.1261365 88.6988855,12.026123 C98.49885,21.828374 98.49885,37.775598 88.6988855,47.5801355 C78.901199,57.3823865 62.953975,57.3823865 53.1540105,47.5801355 C48.407075,42.8332 45.79375,36.519196 45.79375,29.8031335 C45.79375,23.087071 48.407075,16.775345 53.1540105,12.0261315 L53.1540105,12.026123 Z" fill="url(#linearGradient-4)"></path>
                </g>
            </g>
        </g>
    </g>
</svg>